<?xml version="1.0" encoding="UTF-8"?>
<svg id="Layer_1" data-name="Layer 1" xmlns="http://www.w3.org/2000/svg" viewBox="0 0 256 256">
  <defs>
    <style>
      .cls-1 {
        fill: #fbc36c;
      }

      .cls-2 {
        fill: #c1272d;
      }

      .cls-3 {
        fill: #787878;
      }
    </style>
  </defs>
  <path class="cls-3" d="M128,164h0c-19.88,0-36-16.12-36-36s16.12-36,36-36h0V24h0c-57.44,0-104,46.56-104,104s46.56,104,104,104h0v-68Z"/>
  <path class="cls-1" d="M128,40c-48.6,0-88,39.4-88,88s39.4,88,88,88,88-39.4,88-88-39.4-88-88-88ZM128,184c-30.93,0-56-25.07-56-56s25.07-56,56-56,56,25.07,56,56-25.07,56-56,56Z"/>
  <rect class="cls-2" x="120.86" y="12" width="14.28" height="232"/>
</svg>